<?xml version="1.0" standalone="no"?>
<!DOCTYPE svg PUBLIC "-//W3C//DTD SVG 20010904//EN"
 "http://www.w3.org/TR/2001/REC-SVG-20010904/DTD/svg10.dtd">
<svg version="1.0" xmlns="http://www.w3.org/2000/svg"
 width="1024.000000pt" height="1024.000000pt" viewBox="0 0 1024.000000 1024.000000"
 preserveAspectRatio="xMidYMid meet">
<metadata>
Created by potrace 1.11, written by Peter Selinger 2001-2013
</metadata>
<g transform="translate(0.000000,1024.000000) scale(0.100000,-0.100000)"
fill="#000000" stroke="none">
<path d="M5937 8764 c-1 -2 -41 -6 -88 -9 -47 -3 -97 -8 -110 -10 -13 -3 -35
-7 -49 -10 -14 -2 -38 -7 -55 -9 -393 -70 -803 -286 -1100 -580 -87 -86 -123
-127 -220 -247 -11 -14 -84 -123 -123 -184 -6 -11 -22 -39 -34 -62 -24 -47
-31 -50 -85 -28 -50 19 -213 61 -288 74 -267 46 -546 31 -815 -44 -122 -34
-148 -44 -300 -112 -39 -18 -192 -104 -200 -113 -3 -3 -25 -18 -50 -34 -126
-82 -296 -242 -405 -381 -191 -245 -316 -529 -369 -840 -20 -119 -23 -168 -21
-325 2 -102 5 -196 9 -210 6 -27 26 -151 26 -162 0 -3 -30 -16 -67 -28 -204
-67 -412 -197 -574 -360 -49 -50 -189 -223 -189 -234 0 -2 -16 -29 -35 -61
-35 -60 -120 -251 -129 -295 -3 -14 -14 -60 -25 -103 -27 -106 -33 -160 -36
-310 -5 -301 70 -565 232 -817 146 -226 340 -398 591 -524 50 -25 92 -43 92
-40 0 4 6 2 13 -3 11 -10 89 -36 182 -62 57 -16 147 -30 240 -37 110 -9 5936
-9 6060 0 55 4 111 9 125 11 70 9 244 50 310 73 8 3 20 6 25 7 83 21 374 170
460 237 6 5 39 31 75 59 271 212 485 515 594 842 31 90 42 134 71 268 21 97
33 362 21 459 -3 19 -7 60 -10 90 -6 55 -11 83 -21 130 -4 14 -8 34 -10 45 -4
16 -29 101 -59 200 -5 16 -17 45 -47 115 -219 510 -675 897 -1219 1035 -54 14
-110 25 -124 25 -20 0 -24 4 -20 23 34 173 39 493 10 692 -24 160 -88 392
-143 515 -73 164 -195 382 -228 410 -8 7 -15 17 -15 22 0 5 -6 15 -12 22 -7 7
-24 28 -38 47 -113 152 -320 345 -504 468 -194 130 -459 250 -666 299 -80 20
-184 41 -225 46 -22 3 -65 8 -95 12 -54 7 -327 13 -333 8z m340 -338 c11 -2
43 -8 70 -12 302 -43 648 -203 891 -411 82 -70 179 -170 252 -259 154 -187
293 -474 350 -718 37 -161 45 -228 45 -421 0 -183 -5 -249 -30 -365 -23 -106
-25 -112 -59 -235 -14 -49 -24 -90 -23 -91 1 -1 54 -5 117 -9 163 -10 242 -18
280 -30 10 -3 31 -7 46 -10 107 -14 403 -140 489 -207 6 -4 44 -33 85 -64 71
-53 270 -248 270 -265 0 -4 6 -14 14 -22 28 -28 105 -154 150 -246 73 -148
127 -337 142 -492 8 -88 3 -374 -6 -374 -2 0 -7 -21 -15 -65 -35 -191 -130
-412 -252 -583 -74 -104 -236 -266 -338 -338 -222 -157 -462 -249 -725 -275
-36 -4 -1415 -7 -3065 -7 -2699 0 -3009 2 -3085 16 -116 22 -115 22 -200 52
-269 97 -501 304 -629 562 -82 165 -111 285 -116 473 -6 259 53 468 190 675
46 69 201 232 245 258 16 10 35 23 42 30 21 21 136 86 198 112 74 31 216 73
278 81 26 3 49 7 52 9 3 2 34 6 70 10 36 4 67 9 69 11 2 2 -15 62 -38 133 -39
123 -72 262 -85 361 -7 47 -8 254 -2 305 31 271 110 490 257 710 65 97 210
257 304 335 160 132 408 252 621 299 128 28 190 35 334 35 149 0 199 -6 367
-40 59 -12 230 -77 336 -128 64 -31 119 -56 121 -56 2 0 11 21 21 48 30 78
121 265 166 338 150 246 359 455 609 611 64 40 183 102 197 104 5 1 24 10 45
20 47 24 206 78 283 95 87 21 154 32 235 41 30 3 56 7 58 8 5 5 346 -3 369 -9z"/>
<path d="M4978 6765 c0 0 -2 -99 -3 -220 l-2 -220 221 0 c122 0 223 3 226 7 3
3 5 102 5 220 l0 213 -223 0 c-122 0 -223 0 -224 0z"/>
<path d="M3884 6202 c-21 -3 -21 -7 -20 -220 l1 -217 226 -1 225 0 0 212 c-1
117 -4 216 -8 220 -7 7 -381 12 -424 6z"/>
<path d="M4443 6202 c-13 -2 -23 -9 -24 -15 0 -7 -1 -104 -2 -218 l-2 -205
228 0 227 0 1 35 c2 145 -1 394 -4 398 -6 5 -390 10 -424 5z"/>
<path d="M4980 6195 c-4 -5 -7 -104 -6 -220 l1 -210 223 0 c122 -1 223 2 223
5 1 3 2 99 3 214 1 163 -1 209 -12 213 -26 10 -424 8 -432 -2z"/>
<path d="M6532 5912 c-151 -171 -170 -501 -39 -694 l18 -28 -31 -19 c-31 -18
-173 -69 -215 -77 -11 -2 -47 -8 -80 -13 -37 -6 -642 -10 -1584 -10 -839 -1
-1527 -3 -1529 -6 -15 -15 -4 -408 12 -433 2 -4 7 -23 10 -42 9 -61 57 -192
101 -276 81 -156 231 -328 369 -421 22 -15 43 -31 46 -34 10 -12 197 -107 262
-133 75 -29 229 -72 298 -81 24 -4 47 -8 50 -10 39 -24 537 -24 679 0 14 3 52
7 85 11 34 3 63 7 66 9 3 2 24 6 46 9 52 8 65 11 149 31 39 9 77 18 85 20 29
7 225 73 265 90 232 96 438 218 600 355 47 40 216 210 263 265 43 50 197 277
223 327 46 89 107 217 113 234 6 19 17 22 119 27 233 12 390 85 509 235 22 28
68 114 68 128 0 17 -150 83 -226 99 -78 16 -271 14 -317 -4 -16 -6 -30 -11
-32 -11 -1 0 -8 24 -15 53 -31 131 -139 287 -270 386 -19 14 -41 32 -48 39
-17 15 -12 18 -50 -26z m-2486 -1260 c148 -76 175 -274 52 -377 -180 -152
-443 9 -386 235 14 54 69 114 130 143 63 30 144 30 204 -1z"/>
<path d="M3874 4549 c-73 -47 -79 -138 -14 -196 14 -13 32 -24 40 -24 59 -5
79 -3 108 14 57 34 75 116 37 174 -33 50 -120 66 -171 32z"/>
<path d="M3309 5572 c0 -79 0 -305 0 -344 l1 -28 225 0 c207 0 225 1 226 18 1
22 1 393 0 409 -1 10 -54 13 -226 12 l-225 0 -1 -67z"/>
<path d="M3863 5420 l0 -219 227 0 226 0 0 219 0 219 -226 0 -226 1 -1 -220z"/>
<path d="M4419 5627 c-1 -15 -1 -349 0 -394 l1 -33 225 0 225 0 1 75 c0 41 1
140 2 220 l2 144 -227 1 c-175 0 -228 -3 -229 -13z"/>
<path d="M4974 5423 l1 -218 225 -3 225 -2 0 217 0 218 -226 3 -226 2 1 -217z"/>
<path d="M5525 5422 l1 -217 227 -2 227 -1 0 218 0 218 -227 1 -228 0 0 -217z"/>
</g>
</svg>
